<svg xmlns="http://www.w3.org/2000/svg" version="1.1" xmlns:xlink="http://www.w3.org/1999/xlink" xmlns:svgjs="http://svgjs.dev/svgjs" width="1440" height="560" preserveAspectRatio="none" viewBox="0 0 1440 560"><g mask="url(&quot;#SvgjsMask1000&quot;)" fill="none"><rect width="1440" height="560" x="0" y="0" fill="#1e3266"></rect><path d="M1536 560L0 560 L0 300.49Q59.06 239.55, 120 298.61Q205.56 264.18, 240 349.74Q307.14 296.88, 360 364.03Q381.46 313.49, 432 334.95Q477.07 308.02, 504 353.09Q549.87 278.95, 624 324.82Q692.21 273.03, 744 341.25Q763.8 289.05, 816 308.85Q843 263.86, 888 290.86Q984.59 267.44, 1008 364.03Q1039.9 275.93, 1128 307.83Q1174.81 282.64, 1200 329.45Q1246.67 304.13, 1272 350.8Q1291.81 298.61, 1344 318.41Q1363.12 265.53, 1416 284.65Q1501.47 250.13, 1536 335.6z" fill="#182f5d"></path><path d="M1488 560L0 560 L0 438.98Q32.1 351.08, 120 383.17Q141.05 332.22, 192 353.26Q233.56 322.81, 264 364.37Q338.66 367.03, 336 441.7Q326.23 359.93, 408 350.16Q503.83 326, 528 421.83Q595.17 369, 648 436.17Q668.11 384.28, 720 404.39Q765.23 377.62, 792 422.85Q793.96 352.81, 864 354.76Q899.77 318.53, 936 354.31Q1006.15 304.46, 1056 374.61Q1143.36 341.97, 1176 429.32Q1198.7 332.02, 1296 354.73Q1374.58 313.31, 1416 391.88Q1440.78 344.66, 1488 369.44z" fill="#25467d"></path><path d="M1464 560L0 560 L0 501.47Q61.2 442.68, 120 503.88Q137.26 449.14, 192 466.4Q276.09 430.49, 312 514.57Q312.62 443.19, 384 443.81Q410.86 398.67, 456 425.53Q513.88 411.41, 528 469.29Q580.58 401.87, 648 454.44Q674.13 408.57, 720 434.71Q808.28 402.99, 840 491.26Q882.63 461.89, 912 504.52Q920.86 441.38, 984 450.23Q1010.58 404.81, 1056 431.38Q1116.69 420.07, 1128 480.77Q1170.63 451.39, 1200 494.02Q1223.62 445.63, 1272 469.25Q1296.16 421.41, 1344 445.58Q1422.13 403.71, 1464 481.84z" fill="#356cb1"></path><path d="M1488 560L0 560 L0 567.4Q26.12 521.51, 72 547.63Q125.34 528.97, 144 582.31Q148.47 514.78, 216 519.25Q243.32 474.57, 288 501.89Q349.66 491.55, 360 553.21Q408.83 530.04, 432 578.87Q434.03 508.9, 504 510.93Q553.57 440.5, 624 490.06Q730.74 476.8, 744 583.54Q755.2 522.74, 816 533.94Q861.78 507.72, 888 553.5Q936.77 530.27, 960 579.05Q985.56 484.61, 1080 510.16Q1124.81 482.97, 1152 527.78Q1206.68 510.46, 1224 565.15Q1235.13 504.28, 1296 515.41Q1337.94 485.35, 1368 527.29Q1440.3 479.59, 1488 551.89z" fill="white"></path></g><defs><mask id="SvgjsMask1000"><rect width="1440" height="560" fill="#ffffff"></rect></mask></defs></svg>